<?xml version="1.0" encoding="UTF-8"?>
<svg xmlns="http://www.w3.org/2000/svg" xmlns:xlink="http://www.w3.org/1999/xlink" width="72px" height="60px" viewBox="0 0 62 60" version="1.1">
<g id="surface1">
<path style=" stroke:none;fill-rule:nonzero;fill:rgb(100%,100%,100%);fill-opacity:1;" d="M 56.734375 16.140625 C 56.085938 14.96875 55.386719 13.835938 54.585938 12.789062 C 53.800781 11.734375 52.957031 10.734375 52.039062 9.828125 C 51.597656 9.359375 51.109375 8.941406 50.644531 8.507812 L 49.910156 7.898438 C 49.785156 7.796875 49.667969 7.691406 49.542969 7.597656 L 49.164062 7.3125 C 48.167969 6.539062 47.105469 5.882812 46.042969 5.269531 C 45.496094 4.984375 44.972656 4.6875 44.402344 4.4375 C 44.125 4.308594 43.84375 4.171875 43.574219 4.054688 L 42.765625 3.730469 L 42.339844 3.5625 L 41.921875 3.417969 L 41.082031 3.128906 L 40.238281 2.886719 C 39.957031 2.804688 39.679688 2.722656 39.394531 2.660156 L 38.550781 2.46875 C 38.273438 2.398438 37.988281 2.363281 37.707031 2.308594 C 37.425781 2.261719 37.148438 2.203125 36.867188 2.167969 L 36.027344 2.066406 C 35.75 2.027344 35.472656 2.007812 35.195312 1.988281 L 34.367188 1.929688 L 33.542969 1.914062 C 33.269531 1.90625 32.996094 1.898438 32.726562 1.914062 C 30.640625 1.953125 28.570312 2.234375 26.546875 2.753906 C 22.683594 3.789062 19.394531 5.511719 16.824219 7.46875 C 15.617188 8.378906 14.488281 9.386719 13.445312 10.480469 C 13.195312 10.722656 12.976562 10.988281 12.75 11.234375 L 12.414062 11.605469 C 12.308594 11.730469 12.207031 11.855469 12.105469 11.980469 L 11.511719 12.710938 L 10.976562 13.429688 C 9.605469 15.308594 8.769531 16.945312 8.25 18.078125 C 7.972656 18.640625 7.8125 19.089844 7.683594 19.382812 L 7.496094 19.832031 L 7.496094 19.835938 L 7.328125 20.292969 C 7.222656 20.597656 7.035156 21.039062 6.859375 21.636719 C 6.472656 22.824219 5.972656 24.597656 5.699219 26.921875 L 5.601562 27.8125 L 5.542969 28.757812 C 5.53125 28.917969 5.519531 29.082031 5.515625 29.246094 L 5.507812 29.746094 C 5.507812 30.085938 5.484375 30.429688 5.503906 30.78125 C 5.523438 32.191406 5.648438 33.714844 5.929688 35.320312 C 6.300781 37.496094 7 39.816406 8.0625 42.15625 C 8.292969 42.292969 8.519531 42.4375 8.742188 42.582031 C 7.480469 40.101562 6.664062 37.59375 6.222656 35.265625 C 5.613281 32.09375 5.65625 29.242188 5.914062 26.945312 C 6.167969 24.640625 6.652344 22.875 7.03125 21.695312 C 7.203125 21.097656 7.386719 20.660156 7.488281 20.355469 L 7.65625 19.898438 L 7.84375 19.453125 C 7.972656 19.160156 8.136719 18.707031 8.414062 18.15625 C 8.9375 17.039062 9.777344 15.414062 11.152344 13.558594 C 12.515625 11.707031 14.410156 9.601562 17 7.714844 C 19.898438 5.597656 23.183594 4.082031 26.664062 3.261719 C 28.652344 2.808594 30.683594 2.585938 32.722656 2.601562 C 32.984375 2.59375 33.25 2.609375 33.515625 2.621094 L 34.316406 2.660156 L 35.117188 2.738281 C 35.386719 2.765625 35.65625 2.789062 35.925781 2.835938 L 36.738281 2.957031 C 37.007812 2.992188 37.277344 3.0625 37.546875 3.113281 C 37.820312 3.171875 38.09375 3.214844 38.363281 3.289062 L 39.175781 3.496094 C 39.445312 3.5625 39.714844 3.648438 39.984375 3.734375 L 40.792969 3.992188 L 41.597656 4.292969 L 42 4.441406 C 42.125 4.492188 42.261719 4.554688 42.394531 4.609375 L 43.195312 4.957031 C 43.457031 5.078125 43.714844 5.214844 43.976562 5.339844 C 44.503906 5.589844 45.003906 5.894531 45.519531 6.179688 C 46.527344 6.792969 47.53125 7.449219 48.464844 8.214844 L 48.820312 8.496094 C 48.9375 8.59375 49.050781 8.695312 49.164062 8.792969 L 49.851562 9.394531 C 50.285156 9.820312 50.742188 10.230469 51.152344 10.691406 C 52.003906 11.578125 52.785156 12.550781 53.507812 13.574219 C 54.242188 14.585938 54.878906 15.683594 55.46875 16.808594 C 56.640625 19.101562 57.484375 21.550781 57.976562 24.082031 C 58.476562 26.65625 58.609375 29.289062 58.367188 31.898438 L 58.265625 32.882812 C 58.21875 33.207031 58.164062 33.53125 58.117188 33.859375 C 58.089844 34.019531 58.066406 34.183594 58.035156 34.34375 L 57.9375 34.828125 C 57.867188 35.152344 57.8125 35.476562 57.730469 35.796875 C 57.425781 37.078125 57.011719 38.339844 56.550781 39.566406 C 56.050781 40.800781 55.507812 41.988281 54.859375 43.136719 C 54.703125 43.425781 54.523438 43.703125 54.355469 43.984375 L 54.101562 44.40625 C 54.015625 44.546875 53.917969 44.679688 53.828125 44.816406 C 53.644531 45.085938 53.464844 45.363281 53.277344 45.628906 L 52.6875 46.417969 C 51.097656 48.484375 49.222656 50.308594 47.121094 51.835938 C 45.050781 53.339844 42.777344 54.535156 40.375 55.386719 C 39.1875 55.796875 37.984375 56.152344 36.761719 56.382812 C 35.542969 56.621094 34.320312 56.789062 33.097656 56.84375 C 32.488281 56.890625 31.878906 56.871094 31.273438 56.882812 L 30.367188 56.839844 C 30.21875 56.832031 30.066406 56.828125 29.917969 56.820312 L 29.46875 56.777344 C 28.269531 56.683594 27.097656 56.464844 25.949219 56.210938 C 25.378906 56.0625 24.808594 55.933594 24.257812 55.746094 C 23.980469 55.65625 23.699219 55.578125 23.425781 55.480469 L 22.613281 55.179688 C 22.480469 55.128906 22.339844 55.082031 22.214844 55.027344 L 21.816406 54.859375 L 21.027344 54.515625 L 20.265625 54.140625 C 20.011719 54.015625 19.757812 53.894531 19.515625 53.75 L 18.78125 53.339844 C 18.539062 53.207031 18.308594 53.046875 18.070312 52.902344 C 17.839844 52.75 17.597656 52.613281 17.375 52.453125 L 16.703125 51.976562 C 16.476562 51.824219 16.261719 51.652344 16.050781 51.484375 L 15.410156 50.984375 L 14.804688 50.453125 C 14.601562 50.277344 14.398438 50.105469 14.210938 49.917969 C 13.921875 49.644531 13.640625 49.367188 13.363281 49.082031 C 12.972656 48.609375 12.601562 48.132812 12.242188 47.714844 C 11.578125 46.945312 10.890625 46.15625 10.308594 45.296875 C 9.703125 44.832031 9.054688 44.441406 8.347656 44.175781 C 5.6875 43.167969 2.566406 43.917969 1.96875 47.007812 C 1.371094 50.101562 3.816406 52.859375 6.4375 51.789062 C 9.058594 50.71875 7.3125 48.023438 7.3125 48.023438 C 4.753906 51.214844 1.457031 48.011719 3.414062 45.574219 C 5.375 43.136719 8.976562 45.609375 10.515625 47.359375 C 12.054688 49.109375 12.980469 52.414062 17.21875 54.910156 C 19.273438 56.117188 21.117188 56.289062 22.472656 56.144531 L 23.113281 56.402344 C 23.394531 56.507812 23.683594 56.597656 23.96875 56.699219 C 24.539062 56.90625 25.128906 57.054688 25.714844 57.226562 C 26.902344 57.523438 28.121094 57.78125 29.367188 57.910156 L 29.835938 57.96875 C 29.992188 57.984375 30.148438 57.992188 30.304688 58.003906 L 31.25 58.070312 C 31.882812 58.074219 32.523438 58.109375 33.160156 58.078125 C 34.441406 58.054688 35.730469 57.914062 37.015625 57.695312 C 38.304688 57.484375 39.578125 57.148438 40.84375 56.746094 C 43.363281 55.917969 45.789062 54.679688 48.023438 53.117188 L 48.851562 52.519531 L 49.65625 51.878906 C 49.929688 51.671875 50.183594 51.4375 50.441406 51.214844 C 50.699219 50.984375 50.960938 50.765625 51.207031 50.519531 L 51.945312 49.796875 L 52.648438 49.035156 C 52.886719 48.785156 53.105469 48.515625 53.328125 48.25 C 53.546875 47.980469 53.777344 47.722656 53.980469 47.441406 L 54.609375 46.609375 C 54.8125 46.328125 55.003906 46.035156 55.203125 45.75 C 55.296875 45.605469 55.398438 45.464844 55.492188 45.316406 L 55.765625 44.871094 C 55.945312 44.570312 56.136719 44.28125 56.304688 43.972656 L 56.804688 43.054688 C 56.976562 42.75 57.121094 42.414062 57.28125 42.097656 L 57.515625 41.613281 C 57.59375 41.449219 57.648438 41.304688 57.714844 41.148438 L 58.105469 40.234375 L 58.210938 39.953125 L 58.300781 39.707031 L 58.476562 39.210938 C 58.601562 38.886719 58.703125 38.550781 58.800781 38.214844 C 58.898438 37.878906 59.011719 37.546875 59.097656 37.207031 L 59.351562 36.191406 C 59.4375 35.851562 59.492188 35.503906 59.566406 35.164062 L 59.667969 34.648438 C 59.699219 34.476562 59.722656 34.304688 59.75 34.128906 C 59.800781 33.785156 59.855469 33.441406 59.902344 33.09375 L 60.003906 32.050781 C 60.046875 31.703125 60.050781 31.355469 60.074219 31.007812 C 60.089844 30.660156 60.113281 30.3125 60.109375 29.964844 L 60.113281 28.917969 L 60.066406 27.878906 C 60.058594 27.53125 60.015625 27.1875 59.980469 26.84375 C 59.945312 26.496094 59.917969 26.152344 59.859375 25.8125 L 59.707031 24.789062 L 59.507812 23.773438 C 58.9375 21.085938 58.003906 18.5 56.734375 16.140625 Z M 56.734375 16.140625 "/>
<path style=" stroke:none;fill-rule:evenodd;fill:rgb(100%,100%,100%);fill-opacity:1;" d="M 36.410156 22.371094 C 36.261719 22.371094 36.125 22.394531 35.992188 22.429688 C 36.007812 22.25 36.039062 22.066406 36.039062 21.894531 L 25.261719 21.894531 C 25.296875 24.34375 26.921875 27.546875 29.136719 28.609375 L 32.164062 28.609375 C 33.417969 28.007812 34.472656 26.710938 35.167969 25.257812 C 35.476562 25.601562 35.917969 25.816406 36.410156 25.816406 C 37.347656 25.816406 38.105469 25.042969 38.105469 24.09375 C 38.105469 23.140625 37.347656 22.371094 36.410156 22.371094 Z M 36.410156 25.054688 C 35.996094 25.054688 35.65625 24.78125 35.523438 24.40625 C 35.652344 24.054688 35.757812 23.699219 35.839844 23.34375 C 36 23.21875 36.191406 23.132812 36.410156 23.132812 C 36.929688 23.132812 37.355469 23.5625 37.355469 24.09375 C 37.355469 24.625 36.929688 25.054688 36.410156 25.054688 Z M 36.410156 25.054688 "/>
<path style=" stroke:none;fill-rule:evenodd;fill:rgb(100%,100%,100%);fill-opacity:1;" d="M 28.449219 30.289062 L 32.917969 30.289062 C 35.203125 30.078125 36.925781 29.554688 37.320312 28.910156 L 24.046875 28.910156 C 24.4375 29.554688 26.160156 30.078125 28.449219 30.289062 Z M 28.449219 30.289062 "/>
<path style=" stroke:none;fill-rule:nonzero;fill:rgb(100%,100%,100%);fill-opacity:1;" d="M 30.855469 17.011719 C 30.59375 16.699219 30.328125 16.394531 30.113281 16.070312 C 29.925781 15.789062 29.78125 15.480469 29.707031 15.144531 C 29.601562 14.65625 29.644531 14.101562 29.910156 13.734375 C 30.160156 13.347656 30.558594 13.214844 30.769531 13.144531 C 30.554688 13.1875 30.160156 13.289062 29.796875 13.644531 C 29.335938 14.09375 29.300781 14.679688 29.355469 15.246094 C 29.429688 16.058594 29.871094 16.714844 30.359375 17.339844 C 30.800781 17.902344 31.433594 18.480469 31.519531 19.242188 C 31.636719 20.257812 30.886719 21.25 30.660156 21.613281 C 30.921875 21.269531 31.820312 20.441406 31.863281 19.21875 C 31.894531 18.324219 31.386719 17.65625 30.855469 17.011719 Z M 30.855469 17.011719 "/>
<path style=" stroke:none;fill-rule:nonzero;fill:rgb(100%,100%,100%);fill-opacity:1;" d="M 32.84375 18.113281 C 33.070312 18.664062 33.148438 19.265625 32.9375 19.882812 C 32.765625 20.398438 32.414062 21.074219 32.121094 21.328125 C 32.441406 21.125 32.988281 20.523438 33.257812 20.019531 C 33.582031 19.40625 33.734375 18.761719 33.476562 17.976562 C 33.25 17.273438 32.597656 16.734375 31.992188 16.363281 C 31.617188 16.105469 31.21875 15.859375 31.003906 15.542969 C 30.773438 15.222656 30.796875 14.847656 30.828125 14.660156 C 30.753906 14.847656 30.683594 15.214844 30.882812 15.613281 C 31.066406 16.007812 31.449219 16.328125 31.777344 16.640625 C 32.21875 17.058594 32.613281 17.558594 32.84375 18.113281 Z M 32.84375 18.113281 "/>
<path style=" stroke:none;fill-rule:nonzero;fill:rgb(100%,100%,100%);fill-opacity:1;" d="M 29.007812 17.453125 C 28.484375 16.925781 28.136719 16.636719 27.972656 16.101562 C 27.742188 15.375 28.050781 14.636719 28.28125 14.25 C 27.976562 14.558594 27.53125 15.25 27.632812 16.164062 C 27.832031 17.398438 29.011719 18.023438 29.558594 19.0625 C 29.917969 19.75 29.628906 20.621094 29.46875 20.914062 C 29.664062 20.664062 30.195312 19.777344 29.9375 18.886719 C 29.75 18.246094 29.582031 18.039062 29.007812 17.453125 Z M 29.007812 17.453125 "/>
<path style=" stroke:none;fill-rule:nonzero;fill:rgb(100%,100%,100%);fill-opacity:1;" d="M 15.496094 44.652344 C 15.84375 44.34375 16.148438 44.191406 16.390625 44.191406 C 16.585938 44.191406 16.722656 44.269531 16.785156 44.421875 C 16.832031 44.574219 16.816406 44.714844 16.738281 44.820312 C 16.601562 45.003906 16.4375 45.144531 16.210938 45.25 C 15.96875 45.328125 15.738281 45.375 15.511719 45.375 C 15.074219 45.375 14.726562 45.265625 14.496094 45.066406 C 14.089844 44.761719 13.847656 44.328125 13.753906 43.777344 C 13.679688 43.222656 13.617188 42.703125 13.605469 42.226562 C 13.589844 41.75 13.574219 41.304688 13.574219 40.828125 C 13.574219 40.351562 13.589844 39.90625 13.605469 39.429688 L 12.632812 39.429688 C 12.347656 39.429688 12.210938 39.277344 12.210938 38.984375 C 12.210938 38.691406 12.347656 38.539062 12.632812 38.539062 L 13.632812 38.539062 C 13.648438 38.03125 13.664062 37.523438 13.710938 37.019531 L 13.769531 35.511719 C 13.769531 35.25 14.226562 35.191406 14.421875 35.191406 C 14.589844 35.191406 14.738281 35.222656 14.890625 35.265625 C 15.027344 35.3125 15.089844 35.40625 15.074219 35.511719 L 15.027344 37.019531 L 14.980469 38.539062 L 16.074219 38.539062 C 16.359375 38.539062 16.496094 38.691406 16.496094 38.984375 C 16.496094 39.277344 16.359375 39.429688 16.074219 39.429688 L 14.953125 39.429688 L 14.953125 39.675781 L 14.90625 41.011719 C 14.890625 41.457031 14.90625 41.886719 14.921875 42.363281 C 14.9375 42.71875 14.980469 43.117188 15.042969 43.5625 C 15.101562 44.007812 15.253906 44.359375 15.496094 44.652344 Z M 23.980469 40.429688 C 24.039062 42.085938 23.917969 43.761719 23.601562 45.4375 C 23.554688 45.726562 23.160156 45.742188 22.933594 45.742188 C 22.78125 45.742188 22.632812 45.710938 22.480469 45.667969 C 22.34375 45.605469 22.28125 45.527344 22.296875 45.4375 L 22.359375 45.097656 L 22.402344 44.761719 C 21.875 45.144531 21.085938 45.328125 20.433594 45.328125 C 19.980469 45.328125 19.527344 45.234375 19.070312 45.035156 C 18.632812 44.835938 18.316406 44.515625 18.148438 44.039062 C 18.011719 43.652344 17.964844 43.238281 18.011719 42.792969 C 18.101562 41.917969 18.4375 41.164062 19.011719 40.519531 C 19.601562 39.859375 20.328125 39.539062 21.222656 39.539062 C 21.738281 39.539062 22.222656 39.660156 22.660156 39.890625 C 22.617188 38.863281 22.191406 36.019531 20.796875 36.019531 C 19.90625 36.019531 18.691406 37.25 18.617188 38.15625 C 18.570312 38.445312 18.179688 38.476562 17.949219 38.476562 C 17.785156 38.476562 17.632812 38.445312 17.496094 38.386719 C 17.359375 38.339844 17.285156 38.261719 17.300781 38.15625 C 17.421875 36.648438 19.449219 35.328125 20.890625 35.328125 C 23.417969 35.328125 23.933594 38.402344 23.980469 40.429688 Z M 19.390625 43.792969 C 19.554688 44.300781 19.90625 44.683594 20.449219 44.683594 C 21.796875 44.683594 22.527344 43.207031 22.570312 42.011719 C 22.570312 41.625 22.464844 41.210938 22.238281 40.796875 C 22.027344 40.382812 21.691406 40.167969 21.238281 40.167969 C 20.253906 40.167969 19.679688 41.472656 19.433594 42.269531 C 19.269531 42.824219 19.253906 43.332031 19.390625 43.792969 Z M 30.433594 42.59375 C 30.539062 43.4375 30.3125 44.070312 29.75 44.484375 C 29.191406 44.898438 28.554688 45.113281 27.84375 45.113281 C 27.3125 45.113281 26.796875 44.992188 26.28125 44.746094 C 25.78125 44.484375 25.449219 44.082031 25.28125 43.53125 C 25.175781 43.164062 25.160156 42.761719 25.265625 42.316406 C 25.34375 42.054688 25.75 41.996094 25.980469 41.996094 C 26.144531 41.996094 26.328125 42.027344 26.492188 42.070312 C 26.628906 42.132812 26.691406 42.210938 26.675781 42.316406 C 26.628906 42.488281 26.628906 42.703125 26.644531 42.976562 C 26.660156 43.300781 26.765625 43.636719 26.933594 43.976562 C 27.113281 44.3125 27.402344 44.484375 27.78125 44.484375 L 27.855469 44.484375 C 28.28125 44.46875 28.585938 44.285156 28.75 43.929688 C 28.917969 43.578125 29.023438 43.207031 29.039062 42.855469 C 29.039062 42.148438 28.796875 41.582031 28.328125 41.148438 C 27.855469 40.71875 27.355469 40.367188 26.796875 40.074219 C 26.464844 39.890625 26.160156 39.707031 25.902344 39.523438 C 25.617188 39.320312 25.402344 39.046875 25.28125 38.691406 C 25.144531 38.324219 25.144531 37.941406 25.265625 37.554688 C 25.433594 36.925781 25.828125 36.34375 26.417969 35.835938 C 27.023438 35.3125 27.660156 35.050781 28.328125 35.050781 C 29.234375 35.050781 30.054688 35.574219 30.28125 36.496094 C 30.371094 36.957031 30.417969 37.355469 30.433594 37.679688 C 30.433594 37.785156 30.355469 37.878906 30.21875 37.925781 C 30.070312 37.984375 29.902344 38.015625 29.734375 38.015625 C 29.570312 38.015625 29.402344 37.984375 29.265625 37.925781 C 29.113281 37.878906 29.039062 37.785156 29.039062 37.679688 C 29.023438 37.570312 29.023438 37.402344 29.007812 37.203125 C 28.992188 37.050781 28.960938 36.847656 28.902344 36.589844 C 28.839844 36.375 28.765625 36.1875 28.675781 36.050781 C 28.570312 35.914062 28.433594 35.835938 28.28125 35.835938 C 28.097656 35.835938 27.917969 35.925781 27.722656 36.097656 C 27.160156 36.632812 26.796875 37.09375 26.613281 37.878906 C 26.492188 38.386719 26.644531 38.816406 27.070312 39.167969 C 27.386719 39.460938 27.75 39.675781 28.144531 39.84375 C 28.691406 40.105469 29.191406 40.457031 29.644531 40.933594 C 30.097656 41.410156 30.355469 41.964844 30.433594 42.59375 Z M 36.386719 42.59375 C 36.492188 43.4375 36.261719 44.070312 35.703125 44.484375 C 35.144531 44.898438 34.507812 45.113281 33.792969 45.113281 C 33.265625 45.113281 32.75 44.992188 32.234375 44.746094 C 31.734375 44.484375 31.402344 44.082031 31.234375 43.53125 C 31.128906 43.164062 31.113281 42.761719 31.21875 42.316406 C 31.296875 42.054688 31.703125 41.996094 31.929688 41.996094 C 32.097656 41.996094 32.28125 42.027344 32.445312 42.070312 C 32.582031 42.132812 32.644531 42.210938 32.628906 42.316406 C 32.582031 42.488281 32.582031 42.703125 32.597656 42.976562 C 32.613281 43.300781 32.71875 43.636719 32.886719 43.976562 C 33.066406 44.3125 33.355469 44.484375 33.734375 44.484375 L 33.808594 44.484375 C 34.234375 44.46875 34.535156 44.285156 34.703125 43.929688 C 34.871094 43.578125 34.976562 43.207031 34.992188 42.855469 C 34.992188 42.148438 34.75 41.582031 34.28125 41.148438 C 33.808594 40.71875 33.308594 40.367188 32.75 40.074219 C 32.417969 39.890625 32.113281 39.707031 31.855469 39.523438 C 31.566406 39.320312 31.355469 39.046875 31.234375 38.691406 C 31.097656 38.324219 31.097656 37.941406 31.21875 37.554688 C 31.386719 36.925781 31.78125 36.34375 32.371094 35.835938 C 32.976562 35.3125 33.613281 35.050781 34.28125 35.050781 C 35.1875 35.050781 36.007812 35.574219 36.234375 36.496094 C 36.324219 36.957031 36.371094 37.355469 36.386719 37.679688 C 36.386719 37.785156 36.308594 37.878906 36.171875 37.925781 C 36.019531 37.984375 35.855469 38.015625 35.6875 38.015625 C 35.519531 38.015625 35.355469 37.984375 35.21875 37.925781 C 35.066406 37.878906 34.992188 37.785156 34.992188 37.679688 C 34.976562 37.570312 34.976562 37.402344 34.960938 37.203125 C 34.945312 37.050781 34.914062 36.847656 34.855469 36.589844 C 34.792969 36.375 34.71875 36.1875 34.628906 36.050781 C 34.523438 35.914062 34.386719 35.835938 34.234375 35.835938 C 34.050781 35.835938 33.871094 35.925781 33.671875 36.097656 C 33.113281 36.632812 32.75 37.09375 32.566406 37.878906 C 32.445312 38.386719 32.597656 38.816406 33.023438 39.167969 C 33.339844 39.460938 33.703125 39.675781 34.097656 39.84375 C 34.644531 40.105469 35.144531 40.457031 35.597656 40.933594 C 36.050781 41.410156 36.308594 41.964844 36.386719 42.59375 Z M 41.625 42.824219 C 41.714844 42.6875 41.914062 42.625 42.214844 42.625 C 42.414062 42.625 42.59375 42.65625 42.761719 42.71875 C 42.929688 42.777344 42.957031 42.871094 42.882812 42.976562 C 42.535156 43.53125 42.109375 44.054688 41.59375 44.53125 C 41.125 44.976562 40.519531 45.191406 39.761719 45.191406 C 38.824219 45.191406 38.125 44.882812 37.6875 44.253906 C 37.25 43.625 37.019531 42.886719 37.003906 42.042969 C 36.992188 41.535156 37.019531 41.058594 37.113281 40.582031 C 37.445312 38.847656 38.429688 35.34375 40.65625 35.34375 C 41.582031 35.34375 42.1875 35.757812 42.472656 36.601562 C 42.578125 36.957031 42.609375 37.355469 42.566406 37.769531 C 42.277344 39.8125 40.277344 41.089844 38.355469 41.136719 C 38.308594 41.582031 38.308594 42.027344 38.355469 42.472656 C 38.398438 42.855469 38.519531 43.285156 38.71875 43.746094 C 38.914062 44.207031 39.246094 44.46875 39.703125 44.515625 C 40.1875 44.515625 40.582031 44.3125 40.867188 43.898438 C 41.15625 43.515625 41.398438 43.164062 41.625 42.824219 Z M 39.535156 37.355469 L 39.308594 37.800781 C 38.882812 38.675781 38.597656 39.582031 38.429688 40.519531 C 39.109375 40.445312 39.703125 40.167969 40.203125 39.691406 C 40.71875 39.214844 41.066406 38.632812 41.230469 37.96875 C 41.335938 37.570312 41.351562 37.203125 41.292969 36.878906 C 41.277344 36.726562 41.203125 36.542969 41.082031 36.328125 C 40.972656 36.097656 40.824219 35.988281 40.640625 35.988281 C 40.429688 36.003906 40.21875 36.1875 39.988281 36.542969 C 39.777344 36.878906 39.625 37.15625 39.535156 37.355469 Z M 49.699219 38.355469 C 49.773438 38.984375 49.804688 39.582031 49.757812 40.136719 C 49.683594 41.242188 49.59375 42.378906 49.125 43.40625 C 48.699219 44.34375 47.730469 44.976562 46.699219 44.976562 C 46.078125 44.976562 45.519531 44.789062 45.019531 44.40625 C 44.519531 44.023438 44.199219 43.515625 44.035156 42.902344 C 43.882812 42.332031 43.820312 41.75 43.867188 41.164062 C 43.988281 39.199219 44.261719 35.710938 46.882812 35.710938 C 47.667969 35.710938 48.304688 35.957031 48.789062 36.464844 C 49.289062 36.972656 49.59375 37.601562 49.699219 38.355469 Z M 48.410156 40.90625 L 48.441406 39.738281 C 48.457031 39.320312 48.441406 38.90625 48.425781 38.460938 C 48.394531 38.015625 48.261719 37.570312 48.003906 37.140625 C 47.761719 36.695312 47.382812 36.480469 46.867188 36.480469 C 46.699219 36.480469 46.503906 36.574219 46.304688 36.742188 C 45.457031 37.957031 45.304688 39.414062 45.199219 40.84375 C 45.183594 41.242188 45.183594 41.640625 45.199219 42.054688 C 45.230469 42.808594 45.488281 43.453125 45.957031 43.960938 C 46.167969 44.191406 46.410156 44.3125 46.667969 44.3125 C 46.804688 44.3125 46.957031 44.269531 47.09375 44.191406 C 47.59375 43.867188 47.941406 43.378906 48.109375 42.730469 C 48.289062 42.085938 48.394531 41.472656 48.410156 40.90625 Z M 48.410156 40.90625 "/>
</g>
</svg>
