
        <svg xmlns="http://www.w3.org/2000/svg" xmlns:xlink="http://www.w3.org/1999/xlink" version="1.1" width="3193.548387096774" 
        height="3047.8379251600713" viewBox="0 0 3193.548387096774 3047.8379251600713">
			<rect fill="#202020" width="3193.548387096774" height="3047.8379251600713"/>
			<g transform="scale(9.677419354838708) translate(10, 10)">
				<defs id="SvgjsDefs1991"><linearGradient id="SvgjsLinearGradient1998"><stop id="SvgjsStop1999" stop-color="#8f5e25" offset="0"></stop><stop id="SvgjsStop2000" stop-color="#fbf4a1" offset="0.5"></stop><stop id="SvgjsStop2001" stop-color="#8f5e25" offset="1"></stop></linearGradient><linearGradient id="SvgjsLinearGradient2002"><stop id="SvgjsStop2003" stop-color="#8f5e25" offset="0"></stop><stop id="SvgjsStop2004" stop-color="#fbf4a1" offset="0.5"></stop><stop id="SvgjsStop2005" stop-color="#8f5e25" offset="1"></stop></linearGradient><linearGradient id="SvgjsLinearGradient2006"><stop id="SvgjsStop2007" stop-color="#8f5e25" offset="0"></stop><stop id="SvgjsStop2008" stop-color="#fbf4a1" offset="0.5"></stop><stop id="SvgjsStop2009" stop-color="#8f5e25" offset="1"></stop></linearGradient></defs><g id="SvgjsG1992" featureKey="rootContainer" transform="matrix(1.569655179234111,0,0,1.569655179234111,-0.0036999206868160825,-0.0018973770820091052)" fill="url(#SvgjsLinearGradient1998)"><path xmlns="http://www.w3.org/2000/svg" d="M186.037 47.606c-2.199-3.918-4.573-7.708-7.278-11.212-2.673-3.521-5.532-6.862-8.641-9.896-1.501-1.568-3.157-2.966-4.737-4.419l-2.486-2.04c-.416-.335-.822-.681-1.244-1.006l-1.286-.948c-3.376-2.588-6.978-4.783-10.585-6.828-1.85-.953-3.631-1.955-5.557-2.789-.942-.424-1.896-.887-2.819-1.272l-2.741-1.088-1.436-.563-1.428-.485-2.84-.963-2.865-.816c-.952-.27-1.896-.548-2.859-.748l-2.861-.651c-.947-.225-1.914-.351-2.863-.53-.955-.153-1.896-.36-2.85-.465l-2.844-.348c-.941-.134-1.888-.19-2.829-.256l-2.809-.197-2.793-.058c-.926-.021-1.848-.047-2.766-.002a92.396 92.396 0 0 0-20.951 2.813C70.563 6.3 59.408 12.063 50.684 18.606a94.794 94.794 0 0 0-11.452 10.073c-.852.814-1.59 1.705-2.365 2.525l-1.131 1.235c-.364.415-.705.842-1.052 1.256l-2.014 2.438-1.806 2.405c-4.652 6.288-7.49 11.763-9.253 15.556-.942 1.875-1.481 3.375-1.92 4.36l-.631 1.504-.003.007-.574 1.533c-.356 1.019-.997 2.493-1.593 4.497-1.313 3.961-3.002 9.899-3.925 17.664l-.334 2.989-.205 3.155c-.03.539-.075 1.083-.095 1.635l-.023 1.675c.002 1.128-.071 2.283-.009 3.46.065 4.71.49 9.809 1.436 15.183 1.26 7.265 3.635 15.029 7.239 22.851.779.461 1.548.94 2.31 1.432-4.283-8.301-7.051-16.679-8.546-24.475-2.073-10.61-1.93-20.139-1.051-27.822.868-7.709 2.508-13.618 3.789-17.561.58-1.996 1.208-3.463 1.556-4.478l.56-1.525.639-1.496c.443-.978.997-2.489 1.94-4.333 1.766-3.739 4.625-9.172 9.278-15.377 4.628-6.196 11.056-13.232 19.838-19.535A91.401 91.401 0 0 1 84.063 4.544a90.29 90.29 0 0 1 20.54-2.216c.895-.022 1.792.028 2.692.072l2.713.125 2.725.263c.912.087 1.829.165 2.74.32l2.75.409c.923.124 1.831.351 2.751.522.916.198 1.847.342 2.759.585l2.753.702c.926.215 1.834.51 2.747.795l2.748.859 2.72 1.002 1.366.503c.433.17.895.378 1.341.566l2.71 1.16c.897.402 1.764.855 2.652 1.283 1.786.825 3.494 1.846 5.243 2.803 3.416 2.057 6.815 4.246 9.982 6.808l1.207.938c.396.322.776.663 1.166.994l2.327 2.01c1.474 1.431 3.021 2.8 4.415 4.336 2.893 2.969 5.534 6.223 7.991 9.637 2.489 3.396 4.649 7.057 6.641 10.824a90.788 90.788 0 0 1 8.513 24.324 91.449 91.449 0 0 1 1.326 26.142l-.353 3.283c-.149 1.09-.337 2.177-.503 3.266-.091.543-.161 1.091-.268 1.631l-.337 1.619c-.239 1.076-.419 2.167-.706 3.232-1.022 4.289-2.432 8.505-3.994 12.605-1.699 4.128-3.542 8.104-5.743 11.943-.521.972-1.138 1.89-1.702 2.837l-.864 1.41c-.292.467-.617.913-.923 1.371-.625.907-1.233 1.826-1.872 2.723l-1.994 2.632a91.506 91.506 0 0 1-18.886 18.123 90.78 90.78 0 0 1-22.873 11.874c-4.033 1.377-8.116 2.561-12.256 3.328-4.129.801-8.283 1.359-12.424 1.538-2.068.163-4.133.099-6.187.13l-3.072-.133c-.51-.026-1.021-.038-1.53-.075l-1.522-.145c-4.062-.306-8.038-1.042-11.935-1.887-1.93-.502-3.871-.929-5.744-1.555-.94-.298-1.888-.564-2.814-.886l-2.755-1.009c-.452-.169-.927-.332-1.359-.504l-1.346-.573-2.679-1.141-2.584-1.256c-.858-.417-1.718-.824-2.541-1.303l-2.485-1.376c-.831-.448-1.608-.982-2.41-1.466-.788-.507-1.605-.963-2.362-1.505l-2.282-1.588c-.769-.512-1.49-1.083-2.214-1.645l-2.165-1.677-2.062-1.769c-.686-.585-1.373-1.164-2.01-1.793a88.332 88.332 0 0 1-2.869-2.797c-1.327-1.58-2.581-3.179-3.803-4.573-2.252-2.567-4.593-5.215-6.564-8.082-2.054-1.562-4.246-2.861-6.643-3.752-9.023-3.367-19.606-.866-21.632 9.474-2.039 10.344 6.262 19.563 15.144 15.991 8.889-3.579 2.976-12.596 2.976-12.596-8.685 10.673-19.863-.046-13.219-8.189 6.649-8.149 18.864.11 24.08 5.962 5.217 5.859 8.36 16.912 22.738 25.257 6.962 4.038 13.209 4.608 17.806 4.125l2.185.863c.952.358 1.927.661 2.895.995 1.929.698 3.931 1.195 5.926 1.768 4.028.983 8.154 1.854 12.384 2.283l1.585.19c.53.053 1.062.08 1.596.12l3.207.219c2.146.025 4.309.142 6.477.029 4.342-.079 8.712-.551 13.07-1.283 4.37-.697 8.694-1.829 12.98-3.175 8.554-2.764 16.778-6.906 24.35-12.13l2.816-2.002 2.726-2.137c.924-.697 1.782-1.473 2.661-2.227.871-.764 1.77-1.499 2.594-2.317l2.502-2.426 2.385-2.547c.811-.836 1.551-1.737 2.305-2.625.744-.897 1.533-1.76 2.224-2.701l2.131-2.78c.684-.947 1.336-1.917 2.004-2.877.329-.483.674-.956.988-1.45l.927-1.49c.605-1.001 1.262-1.973 1.823-3l1.704-3.072c.572-1.017 1.074-2.138 1.612-3.204l.792-1.62c.266-.542.453-1.029.683-1.546l1.322-3.06.357-.941.301-.826.599-1.652c.419-1.094.762-2.215 1.101-3.336.332-1.124.718-2.23 1-3.368l.865-3.405c.296-1.133.484-2.291.729-3.435l.347-1.72c.11-.574.183-1.155.275-1.733.171-1.157.361-2.31.512-3.468l.355-3.485c.143-1.159.159-2.328.233-3.491.059-1.164.139-2.327.122-3.492l.009-3.49-.154-3.482c-.023-1.161-.18-2.313-.29-3.466-.123-1.152-.215-2.306-.411-3.447l-.52-3.425-.679-3.389c-1.93-8.994-5.097-17.64-9.407-25.53z"></path></g><g id="SvgjsG1993" featureKey="symbolFeature-0" transform="matrix(1.064421114635276,0,0,1.064421114635276,99.47268593248239,50.69964429831056)" fill="url(#SvgjsLinearGradient2002)"><g xmlns="http://www.w3.org/2000/svg"><g><path fill-rule="evenodd" clip-rule="evenodd" d="M79.24,53.299c-0.727,0-1.421,0.12-2.086,0.289    c0.086-0.884,0.232-1.781,0.245-2.635H23.485C23.67,63.033,31.8,78.818,42.878,84.065h15.128    c6.281-2.975,11.55-9.368,15.024-16.521c1.549,1.68,3.745,2.751,6.21,2.751c4.688,0,8.487-3.815,8.487-8.504    C87.728,57.104,83.929,53.299,79.24,53.299z M79.24,66.526c-2.063,0-3.774-1.342-4.422-3.183c0.645-1.748,1.174-3.496,1.578-5.242    c0.797-0.616,1.756-1.044,2.844-1.044c2.61,0,4.732,2.119,4.732,4.734C83.972,64.407,81.851,66.526,79.24,66.526z"></path><path fill-rule="evenodd" clip-rule="evenodd" d="M39.423,92.351h22.353c11.439-1.044,20.05-3.625,22.016-6.796H17.406    C19.372,88.726,27.983,91.306,39.423,92.351z"></path><path d="M51.457,26.872c-1.293-1.535-2.622-3.046-3.696-4.639c-0.941-1.394-1.662-2.921-2.032-4.567    c-0.54-2.408-0.317-5.154,1.007-6.968c1.26-1.893,3.247-2.553,4.294-2.9c-1.065,0.216-3.034,0.712-4.852,2.459    c-2.317,2.222-2.478,5.109-2.223,7.902c0.389,4.006,2.585,7.241,5.036,10.325c2.204,2.779,5.357,5.637,5.798,9.379    c0.583,5.016-3.161,9.905-4.308,11.692c1.321-1.68,5.819-5.776,6.026-11.806C56.656,33.338,54.128,30.047,51.457,26.872z"></path><path d="M61.404,32.31c1.137,2.706,1.523,5.675,0.482,8.713c-0.87,2.548-2.629,5.873-4.099,7.14    c1.612-1.003,4.348-3.971,5.685-6.46c1.627-3.019,2.386-6.199,1.109-10.067c-1.146-3.471-4.399-6.142-7.438-7.955    c-1.877-1.276-3.853-2.487-4.926-4.063c-1.154-1.569-1.035-3.421-0.882-4.346c-0.37,0.933-0.738,2.735,0.262,4.698    c0.932,1.947,2.837,3.529,4.483,5.067C58.287,27.096,60.254,29.575,61.404,32.31z"></path><path d="M42.222,29.049c-2.605-2.604-4.356-4.034-5.181-6.676c-1.137-3.576,0.4-7.223,1.558-9.116    c-1.528,1.522-3.755,4.934-3.248,9.438c0.995,6.073,6.892,9.166,9.62,14.285c1.804,3.392,0.353,7.688-0.444,9.125    c0.978-1.233,3.635-5.604,2.348-9.982C45.942,32.959,45.104,31.931,42.222,29.049z"></path></g></g></g><g id="SvgjsG1994" featureKey="nameFeature-0" transform="matrix(2.0157960827375776,0,0,2.0157960827375776,54.19368065375882,146.18200598408703)" fill="url(#SvgjsLinearGradient2006)"><path d="M9.08 38.8 c0.92 -0.8 1.72 -1.2 2.36 -1.2 c0.52 0 0.88 0.2 1.04 0.6 c0.12 0.4 0.08 0.76 -0.12 1.04 c-0.36 0.48 -0.8 0.84 -1.4 1.12 c-0.64 0.2 -1.24 0.32 -1.84 0.32 c-1.16 0 -2.08 -0.28 -2.68 -0.8 c-1.08 -0.8 -1.72 -1.92 -1.96 -3.36 c-0.2 -1.44 -0.36 -2.8 -0.4 -4.04 s-0.08 -2.4 -0.08 -3.64 s0.04 -2.4 0.08 -3.64 l-2.56 0 c-0.76 0 -1.12 -0.4 -1.12 -1.16 s0.36 -1.16 1.12 -1.16 l2.64 0 c0.04 -1.32 0.08 -2.64 0.2 -3.96 l0.16 -3.92 c0 -0.68 1.2 -0.84 1.72 -0.84 c0.44 0 0.84 0.08 1.24 0.2 c0.36 0.12 0.52 0.36 0.48 0.64 l-0.12 3.92 l-0.12 3.96 l2.88 0 c0.76 0 1.12 0.4 1.12 1.16 s-0.36 1.16 -1.12 1.16 l-2.96 0 l0 0.64 l-0.12 3.48 c-0.04 1.16 0 2.28 0.04 3.52 c0.04 0.92 0.16 1.96 0.32 3.12 s0.56 2.08 1.2 2.84 z M31.48 27.8 c0.16 4.32 -0.16 8.68 -1 13.04 c-0.12 0.76 -1.16 0.8 -1.76 0.8 c-0.4 0 -0.8 -0.08 -1.2 -0.2 c-0.36 -0.16 -0.52 -0.36 -0.48 -0.6 l0.16 -0.88 l0.12 -0.88 c-1.4 1 -3.48 1.48 -5.2 1.48 c-1.2 0 -2.4 -0.24 -3.6 -0.76 c-1.16 -0.52 -2 -1.36 -2.44 -2.6 c-0.36 -1 -0.48 -2.08 -0.36 -3.24 c0.24 -2.28 1.12 -4.24 2.64 -5.92 c1.56 -1.72 3.48 -2.56 5.84 -2.56 c1.36 0 2.64 0.32 3.8 0.92 c-0.12 -2.68 -1.24 -10.08 -4.92 -10.08 c-2.36 0 -5.56 3.2 -5.76 5.56 c-0.12 0.76 -1.16 0.84 -1.76 0.84 c-0.44 0 -0.84 -0.08 -1.2 -0.24 c-0.36 -0.12 -0.56 -0.32 -0.52 -0.6 c0.32 -3.92 5.68 -7.36 9.48 -7.36 c6.68 0 8.04 8 8.16 13.28 z M19.36 36.56 c0.44 1.32 1.36 2.32 2.8 2.32 c3.56 0 5.48 -3.84 5.6 -6.96 c0 -1 -0.28 -2.08 -0.88 -3.16 c-0.56 -1.08 -1.44 -1.64 -2.64 -1.64 c-2.6 0 -4.12 3.4 -4.76 5.48 c-0.44 1.44 -0.48 2.76 -0.12 3.96 z M48.52 33.44 c0.28 2.2 -0.32 3.84 -1.8 4.92 s-3.16 1.64 -5.04 1.64 c-1.4 0 -2.76 -0.32 -4.12 -0.96 c-1.32 -0.68 -2.2 -1.72 -2.64 -3.16 c-0.28 -0.96 -0.32 -2 -0.04 -3.16 c0.2 -0.68 1.28 -0.84 1.88 -0.84 c0.44 0 0.92 0.08 1.36 0.2 c0.36 0.16 0.52 0.36 0.48 0.64 c-0.12 0.44 -0.12 1 -0.08 1.72 c0.04 0.84 0.32 1.72 0.76 2.6 c0.48 0.88 1.24 1.32 2.24 1.32 l0.2 0 c1.12 -0.04 1.92 -0.52 2.36 -1.44 s0.72 -1.88 0.76 -2.8 c0 -1.84 -0.64 -3.32 -1.88 -4.44 s-2.56 -2.04 -4.04 -2.8 c-0.88 -0.48 -1.68 -0.96 -2.36 -1.44 c-0.76 -0.52 -1.32 -1.24 -1.64 -2.16 c-0.36 -0.96 -0.36 -1.96 -0.04 -2.96 c0.44 -1.64 1.48 -3.16 3.04 -4.48 c1.6 -1.36 3.28 -2.04 5.04 -2.04 c2.4 0 4.56 1.36 5.16 3.76 c0.24 1.2 0.36 2.24 0.4 3.08 c0 0.28 -0.2 0.52 -0.56 0.64 c-0.4 0.16 -0.84 0.24 -1.28 0.24 s-0.88 -0.08 -1.24 -0.24 c-0.4 -0.12 -0.6 -0.36 -0.6 -0.64 c-0.04 -0.28 -0.04 -0.72 -0.08 -1.24 c-0.04 -0.4 -0.12 -0.92 -0.28 -1.6 c-0.16 -0.56 -0.36 -1.04 -0.6 -1.4 c-0.28 -0.36 -0.64 -0.56 -1.04 -0.56 c-0.48 0 -0.96 0.24 -1.48 0.68 c-1.48 1.4 -2.44 2.6 -2.92 4.64 c-0.32 1.32 0.08 2.44 1.2 3.36 c0.84 0.76 1.8 1.32 2.84 1.76 c1.44 0.68 2.76 1.6 3.96 2.84 s1.88 2.68 2.08 4.32 z M64.24000000000001 33.44 c0.28 2.2 -0.32 3.84 -1.8 4.92 s-3.16 1.64 -5.04 1.64 c-1.4 0 -2.76 -0.32 -4.12 -0.96 c-1.32 -0.68 -2.2 -1.72 -2.64 -3.16 c-0.28 -0.96 -0.32 -2 -0.04 -3.16 c0.2 -0.68 1.28 -0.84 1.88 -0.84 c0.44 0 0.92 0.08 1.36 0.2 c0.36 0.16 0.52 0.36 0.48 0.64 c-0.12 0.44 -0.12 1 -0.08 1.72 c0.04 0.84 0.32 1.72 0.76 2.6 c0.48 0.88 1.24 1.32 2.24 1.32 l0.2 0 c1.12 -0.04 1.92 -0.52 2.36 -1.44 s0.72 -1.88 0.76 -2.8 c0 -1.84 -0.64 -3.32 -1.88 -4.44 s-2.56 -2.04 -4.04 -2.8 c-0.88 -0.48 -1.68 -0.96 -2.36 -1.44 c-0.76 -0.52 -1.32 -1.24 -1.64 -2.16 c-0.36 -0.96 -0.36 -1.96 -0.04 -2.96 c0.44 -1.64 1.48 -3.16 3.04 -4.48 c1.6 -1.36 3.28 -2.04 5.04 -2.04 c2.4 0 4.56 1.36 5.16 3.76 c0.24 1.2 0.36 2.24 0.4 3.08 c0 0.28 -0.2 0.52 -0.56 0.64 c-0.4 0.16 -0.84 0.24 -1.28 0.24 s-0.88 -0.08 -1.24 -0.24 c-0.4 -0.12 -0.6 -0.36 -0.6 -0.64 c-0.04 -0.28 -0.04 -0.72 -0.08 -1.24 c-0.04 -0.4 -0.12 -0.92 -0.28 -1.6 c-0.16 -0.56 -0.36 -1.04 -0.6 -1.4 c-0.28 -0.36 -0.64 -0.56 -1.04 -0.56 c-0.48 0 -0.96 0.24 -1.48 0.68 c-1.48 1.4 -2.44 2.6 -2.92 4.64 c-0.32 1.32 0.08 2.44 1.2 3.36 c0.84 0.76 1.8 1.32 2.84 1.76 c1.44 0.68 2.76 1.6 3.96 2.84 s1.88 2.68 2.08 4.32 z M78.08 34.04 c0.24 -0.36 0.76 -0.52 1.56 -0.52 c0.52 0 1 0.08 1.44 0.24 s0.52 0.4 0.32 0.68 c-0.92 1.44 -2.04 2.8 -3.4 4.04 c-1.24 1.16 -2.84 1.72 -4.84 1.72 c-2.48 0 -4.32 -0.8 -5.48 -2.44 s-1.76 -3.56 -1.8 -5.76 c-0.04 -1.32 0.04 -2.56 0.28 -3.8 c0.88 -4.52 3.48 -13.64 9.36 -13.64 c2.44 0 4.04 1.08 4.8 3.28 c0.28 0.92 0.36 1.96 0.24 3.04 c-0.76 5.32 -6.04 8.64 -11.12 8.76 c-0.12 1.16 -0.12 2.32 0 3.48 c0.12 1 0.44 2.12 0.96 3.32 s1.4 1.88 2.6 2 c1.28 0 2.32 -0.52 3.08 -1.6 c0.76 -1 1.4 -1.92 2 -2.8 z M72.56 19.8 l-0.6 1.16 c-1.12 2.28 -1.88 4.64 -2.32 7.08 c1.8 -0.2 3.36 -0.92 4.68 -2.16 c1.36 -1.24 2.28 -2.76 2.72 -4.48 c0.28 -1.04 0.32 -2 0.16 -2.84 c-0.04 -0.4 -0.24 -0.88 -0.56 -1.44 c-0.28 -0.6 -0.68 -0.88 -1.16 -0.88 c-0.56 0.04 -1.12 0.52 -1.72 1.44 c-0.56 0.88 -0.96 1.6 -1.2 2.12 z M99.4 22.4 c0.2 1.64 0.28 3.2 0.16 4.64 c-0.2 2.88 -0.44 5.84 -1.68 8.52 c-1.12 2.44 -3.68 4.08 -6.4 4.08 c-1.64 0 -3.12 -0.48 -4.44 -1.48 s-2.16 -2.32 -2.6 -3.92 c-0.4 -1.48 -0.56 -3 -0.44 -4.52 c0.32 -5.12 1.04 -14.2 7.96 -14.2 c2.08 0 3.76 0.64 5.04 1.96 c1.32 1.32 2.12 2.96 2.4 4.92 z M96 29.04 l0.08 -3.04 c0.04 -1.08 0 -2.16 -0.04 -3.32 c-0.08 -1.16 -0.44 -2.32 -1.12 -3.44 c-0.64 -1.16 -1.64 -1.72 -3 -1.72 c-0.44 0 -0.96 0.24 -1.48 0.68 c-2.24 3.16 -2.64 6.96 -2.92 10.68 c-0.04 1.04 -0.04 2.08 0 3.16 c0.08 1.96 0.76 3.64 2 4.96 c0.56 0.6 1.2 0.92 1.88 0.92 c0.36 0 0.76 -0.12 1.12 -0.32 c1.32 -0.84 2.24 -2.12 2.68 -3.8 c0.48 -1.68 0.76 -3.28 0.8 -4.76 z"></path></g>
			</g>
		</svg>
	